<mxfile host="Electron" modified="2023-06-13T03:14:16.848Z" agent="Mozilla/5.0 (Windows NT 10.0; Win64; x64) AppleWebKit/537.36 (KHTML, like Gecko) draw.io/21.2.1 Chrome/112.0.5615.87 Electron/24.1.2 Safari/537.36" etag="LxT9kH4P_5BPdny-9Bmr" version="21.2.1" type="device">
  <diagram name="Page-1" id="2YBvvXClWsGukQMizWep">
    <mxGraphModel dx="2222" dy="1090" grid="0" gridSize="10" guides="1" tooltips="1" connect="1" arrows="1" fold="1" page="0" pageScale="1" pageWidth="850" pageHeight="1100" background="#ffffff" math="0" shadow="0">
      <root>
        <mxCell id="0" />
        <mxCell id="1" parent="0" />
        <mxCell id="TFyRHO4dZEJPEKeFEjWx-3" style="edgeStyle=none;curved=1;rounded=0;orthogonalLoop=1;jettySize=auto;html=1;fontSize=12;startSize=8;endSize=8;entryX=0.4;entryY=0.02;entryDx=0;entryDy=0;entryPerimeter=0;" parent="1" source="TFyRHO4dZEJPEKeFEjWx-1" target="TFyRHO4dZEJPEKeFEjWx-10" edge="1">
          <mxGeometry relative="1" as="geometry">
            <mxPoint x="220" y="300" as="targetPoint" />
          </mxGeometry>
        </mxCell>
        <mxCell id="TFyRHO4dZEJPEKeFEjWx-1" value="用户" style="rounded=0;whiteSpace=wrap;html=1;fontSize=16;fillColor=#dae8fc;strokeColor=none;" parent="1" vertex="1">
          <mxGeometry x="100" y="200" width="100" height="40" as="geometry" />
        </mxCell>
        <mxCell id="TFyRHO4dZEJPEKeFEjWx-11" value="" style="edgeStyle=none;curved=1;rounded=0;orthogonalLoop=1;jettySize=auto;html=1;fontSize=12;startSize=8;endSize=8;" parent="1" source="TFyRHO4dZEJPEKeFEjWx-8" target="TFyRHO4dZEJPEKeFEjWx-10" edge="1">
          <mxGeometry relative="1" as="geometry" />
        </mxCell>
        <mxCell id="TFyRHO4dZEJPEKeFEjWx-8" value="用户" style="rounded=0;whiteSpace=wrap;html=1;fontSize=16;fillColor=#dae8fc;strokeColor=none;" parent="1" vertex="1">
          <mxGeometry x="220" y="200" width="100" height="40" as="geometry" />
        </mxCell>
        <mxCell id="TFyRHO4dZEJPEKeFEjWx-12" style="edgeStyle=none;curved=1;rounded=0;orthogonalLoop=1;jettySize=auto;html=1;entryX=0.6;entryY=0;entryDx=0;entryDy=0;entryPerimeter=0;fontSize=12;startSize=8;endSize=8;" parent="1" source="TFyRHO4dZEJPEKeFEjWx-9" target="TFyRHO4dZEJPEKeFEjWx-10" edge="1">
          <mxGeometry relative="1" as="geometry" />
        </mxCell>
        <mxCell id="TFyRHO4dZEJPEKeFEjWx-9" value="用户" style="rounded=0;whiteSpace=wrap;html=1;fontSize=16;fillColor=#dae8fc;strokeColor=none;" parent="1" vertex="1">
          <mxGeometry x="340" y="200" width="100" height="40" as="geometry" />
        </mxCell>
        <mxCell id="TFyRHO4dZEJPEKeFEjWx-10" value="应用系统" style="whiteSpace=wrap;html=1;fontSize=16;rounded=0;fillColor=#fff2cc;strokeColor=none;" parent="1" vertex="1">
          <mxGeometry x="220" y="290" width="100" height="40" as="geometry" />
        </mxCell>
        <mxCell id="TFyRHO4dZEJPEKeFEjWx-16" value="" style="edgeStyle=none;curved=1;rounded=0;orthogonalLoop=1;jettySize=auto;html=1;fontSize=12;startSize=8;endSize=8;" parent="1" source="TFyRHO4dZEJPEKeFEjWx-10" target="TFyRHO4dZEJPEKeFEjWx-15" edge="1">
          <mxGeometry relative="1" as="geometry">
            <mxPoint x="270" y="330" as="sourcePoint" />
            <mxPoint x="270" y="400" as="targetPoint" />
          </mxGeometry>
        </mxCell>
        <mxCell id="TFyRHO4dZEJPEKeFEjWx-18" value="" style="edgeStyle=none;curved=1;rounded=0;orthogonalLoop=1;jettySize=auto;html=1;fontSize=12;startSize=8;endSize=8;" parent="1" source="TFyRHO4dZEJPEKeFEjWx-15" target="TFyRHO4dZEJPEKeFEjWx-17" edge="1">
          <mxGeometry relative="1" as="geometry" />
        </mxCell>
        <mxCell id="TFyRHO4dZEJPEKeFEjWx-15" value="应用开发工具" style="whiteSpace=wrap;html=1;fontSize=16;rounded=0;fillColor=#e1d5e7;strokeColor=#9673a6;" parent="1" vertex="1">
          <mxGeometry x="220" y="360" width="100" height="40" as="geometry" />
        </mxCell>
        <mxCell id="TFyRHO4dZEJPEKeFEjWx-19" style="edgeStyle=none;curved=1;rounded=0;orthogonalLoop=1;jettySize=auto;html=1;fontSize=12;startSize=8;endSize=8;" parent="1" source="TFyRHO4dZEJPEKeFEjWx-17" edge="1">
          <mxGeometry relative="1" as="geometry">
            <mxPoint x="270" y="490" as="targetPoint" />
          </mxGeometry>
        </mxCell>
        <mxCell id="TFyRHO4dZEJPEKeFEjWx-17" value="数据库管理系统&lt;br&gt;(DBMS)" style="whiteSpace=wrap;html=1;fontSize=16;rounded=0;fillColor=#f8cecc;strokeColor=#b85450;" parent="1" vertex="1">
          <mxGeometry x="205" y="420" width="130" height="40" as="geometry" />
        </mxCell>
        <mxCell id="TFyRHO4dZEJPEKeFEjWx-21" style="edgeStyle=none;curved=1;rounded=0;orthogonalLoop=1;jettySize=auto;html=1;fontSize=12;startSize=8;endSize=8;" parent="1" source="TFyRHO4dZEJPEKeFEjWx-20" edge="1">
          <mxGeometry relative="1" as="geometry">
            <mxPoint x="270" y="570" as="targetPoint" />
          </mxGeometry>
        </mxCell>
        <mxCell id="TFyRHO4dZEJPEKeFEjWx-20" value="操作系统" style="rounded=1;whiteSpace=wrap;html=1;fontSize=16;fillColor=#f5f5f5;fontColor=#333333;strokeColor=#666666;" parent="1" vertex="1">
          <mxGeometry x="220" y="490" width="100" height="40" as="geometry" />
        </mxCell>
        <mxCell id="TFyRHO4dZEJPEKeFEjWx-22" value="数据库" style="shape=datastore;whiteSpace=wrap;html=1;fontSize=16;fillColor=#ffe6cc;strokeColor=#d79b00;" parent="1" vertex="1">
          <mxGeometry x="220" y="570" width="100" height="60" as="geometry" />
        </mxCell>
        <mxCell id="TFyRHO4dZEJPEKeFEjWx-25" style="edgeStyle=none;rounded=1;orthogonalLoop=1;jettySize=auto;html=1;fontSize=12;startSize=8;endSize=8;entryX=1;entryY=0.5;entryDx=0;entryDy=0;" parent="1" source="TFyRHO4dZEJPEKeFEjWx-23" target="TFyRHO4dZEJPEKeFEjWx-20" edge="1">
          <mxGeometry relative="1" as="geometry">
            <mxPoint x="470" y="600" as="targetPoint" />
            <Array as="points">
              <mxPoint x="436" y="510" />
            </Array>
          </mxGeometry>
        </mxCell>
        <mxCell id="TFyRHO4dZEJPEKeFEjWx-26" value="" style="edgeStyle=none;curved=1;rounded=0;orthogonalLoop=1;jettySize=auto;html=1;fontSize=12;startSize=8;endSize=8;" parent="1" source="TFyRHO4dZEJPEKeFEjWx-23" target="TFyRHO4dZEJPEKeFEjWx-17" edge="1">
          <mxGeometry relative="1" as="geometry" />
        </mxCell>
        <mxCell id="TFyRHO4dZEJPEKeFEjWx-23" value="数据库管理员&lt;br&gt;(DBA)" style="whiteSpace=wrap;html=1;fontSize=16;rounded=1;fillColor=#d5e8d4;strokeColor=#82b366;" parent="1" vertex="1">
          <mxGeometry x="380" y="420" width="112" height="45" as="geometry" />
        </mxCell>
        <mxCell id="TFyRHO4dZEJPEKeFEjWx-39" value="学生" style="rounded=0;whiteSpace=wrap;html=1;fontSize=16;fillColor=#e1d5e7;strokeColor=default;shadow=0;glass=0;" parent="1" vertex="1">
          <mxGeometry x="825" y="300" width="100" height="40" as="geometry" />
        </mxCell>
        <mxCell id="TFyRHO4dZEJPEKeFEjWx-40" value="学号" style="ellipse;whiteSpace=wrap;html=1;fontSize=16;fillColor=#d5e8d4;strokeColor=#82b366;" parent="1" vertex="1">
          <mxGeometry x="730" y="400" width="90" height="40" as="geometry" />
        </mxCell>
        <mxCell id="TFyRHO4dZEJPEKeFEjWx-41" value="班级" style="ellipse;whiteSpace=wrap;html=1;fontSize=16;fillColor=#d5e8d4;strokeColor=#82b366;" parent="1" vertex="1">
          <mxGeometry x="830" y="400" width="90" height="40" as="geometry" />
        </mxCell>
        <mxCell id="TFyRHO4dZEJPEKeFEjWx-42" value="专业" style="ellipse;whiteSpace=wrap;html=1;fontSize=16;fillColor=#d5e8d4;strokeColor=#82b366;" parent="1" vertex="1">
          <mxGeometry x="930" y="400" width="90" height="40" as="geometry" />
        </mxCell>
        <mxCell id="TFyRHO4dZEJPEKeFEjWx-43" value="" style="endArrow=none;html=1;rounded=0;fontSize=12;startSize=8;endSize=8;curved=1;entryX=0.5;entryY=1;entryDx=0;entryDy=0;exitX=0.729;exitY=0.085;exitDx=0;exitDy=0;exitPerimeter=0;" parent="1" source="TFyRHO4dZEJPEKeFEjWx-40" target="TFyRHO4dZEJPEKeFEjWx-39" edge="1">
          <mxGeometry width="50" height="50" relative="1" as="geometry">
            <mxPoint x="790" y="410" as="sourcePoint" />
            <mxPoint x="730" y="400" as="targetPoint" />
          </mxGeometry>
        </mxCell>
        <mxCell id="TFyRHO4dZEJPEKeFEjWx-44" value="" style="endArrow=none;html=1;rounded=0;fontSize=12;startSize=8;endSize=8;curved=1;entryX=0.5;entryY=1;entryDx=0;entryDy=0;exitX=0.5;exitY=0;exitDx=0;exitDy=0;" parent="1" source="TFyRHO4dZEJPEKeFEjWx-41" target="TFyRHO4dZEJPEKeFEjWx-39" edge="1">
          <mxGeometry width="50" height="50" relative="1" as="geometry">
            <mxPoint x="806" y="413" as="sourcePoint" />
            <mxPoint x="885" y="350" as="targetPoint" />
          </mxGeometry>
        </mxCell>
        <mxCell id="TFyRHO4dZEJPEKeFEjWx-45" value="" style="endArrow=none;html=1;rounded=0;fontSize=12;startSize=8;endSize=8;curved=1;exitX=0.249;exitY=0.085;exitDx=0;exitDy=0;exitPerimeter=0;entryX=0.5;entryY=1;entryDx=0;entryDy=0;" parent="1" source="TFyRHO4dZEJPEKeFEjWx-42" target="TFyRHO4dZEJPEKeFEjWx-39" edge="1">
          <mxGeometry width="50" height="50" relative="1" as="geometry">
            <mxPoint x="885" y="410" as="sourcePoint" />
            <mxPoint x="880" y="350" as="targetPoint" />
          </mxGeometry>
        </mxCell>
        <mxCell id="TFyRHO4dZEJPEKeFEjWx-46" value="教师" style="rounded=0;whiteSpace=wrap;html=1;fontSize=16;fillColor=#e1d5e7;strokeColor=default;shadow=0;glass=0;" parent="1" vertex="1">
          <mxGeometry x="825" y="140" width="100" height="40" as="geometry" />
        </mxCell>
        <mxCell id="TFyRHO4dZEJPEKeFEjWx-47" value="编号" style="ellipse;whiteSpace=wrap;html=1;fontSize=16;fillColor=#d5e8d4;strokeColor=#82b366;" parent="1" vertex="1">
          <mxGeometry x="710" y="40" width="90" height="40" as="geometry" />
        </mxCell>
        <mxCell id="TFyRHO4dZEJPEKeFEjWx-48" value="班级" style="ellipse;whiteSpace=wrap;html=1;fontSize=16;fillColor=#d5e8d4;strokeColor=#82b366;" parent="1" vertex="1">
          <mxGeometry x="830" y="40" width="90" height="40" as="geometry" />
        </mxCell>
        <mxCell id="TFyRHO4dZEJPEKeFEjWx-49" value="科目" style="ellipse;whiteSpace=wrap;html=1;fontSize=16;fillColor=#d5e8d4;strokeColor=#82b366;" parent="1" vertex="1">
          <mxGeometry x="950" y="40" width="90" height="40" as="geometry" />
        </mxCell>
        <mxCell id="TFyRHO4dZEJPEKeFEjWx-50" value="" style="endArrow=none;html=1;rounded=0;fontSize=12;startSize=8;endSize=8;curved=1;entryX=0.5;entryY=0;entryDx=0;entryDy=0;exitX=1;exitY=1;exitDx=0;exitDy=0;" parent="1" source="TFyRHO4dZEJPEKeFEjWx-47" target="TFyRHO4dZEJPEKeFEjWx-46" edge="1">
          <mxGeometry width="50" height="50" relative="1" as="geometry">
            <mxPoint x="790" y="260" as="sourcePoint" />
            <mxPoint x="730" y="250" as="targetPoint" />
          </mxGeometry>
        </mxCell>
        <mxCell id="TFyRHO4dZEJPEKeFEjWx-51" value="" style="endArrow=none;html=1;rounded=0;fontSize=12;startSize=8;endSize=8;curved=1;entryX=0.5;entryY=0;entryDx=0;entryDy=0;exitX=0.5;exitY=1;exitDx=0;exitDy=0;" parent="1" source="TFyRHO4dZEJPEKeFEjWx-48" target="TFyRHO4dZEJPEKeFEjWx-46" edge="1">
          <mxGeometry width="50" height="50" relative="1" as="geometry">
            <mxPoint x="806" y="263" as="sourcePoint" />
            <mxPoint x="885" y="200" as="targetPoint" />
          </mxGeometry>
        </mxCell>
        <mxCell id="TFyRHO4dZEJPEKeFEjWx-52" value="" style="endArrow=none;html=1;rounded=0;fontSize=12;startSize=8;endSize=8;curved=1;entryX=0.5;entryY=0;entryDx=0;entryDy=0;exitX=0;exitY=1;exitDx=0;exitDy=0;" parent="1" source="TFyRHO4dZEJPEKeFEjWx-49" target="TFyRHO4dZEJPEKeFEjWx-46" edge="1">
          <mxGeometry width="50" height="50" relative="1" as="geometry">
            <mxPoint x="970" y="70" as="sourcePoint" />
            <mxPoint x="880" y="200" as="targetPoint" />
          </mxGeometry>
        </mxCell>
        <mxCell id="TFyRHO4dZEJPEKeFEjWx-56" value="授课" style="rhombus;whiteSpace=wrap;html=1;fontSize=16;fillColor=#f8cecc;strokeColor=#b85450;" parent="1" vertex="1">
          <mxGeometry x="812.5" y="210" width="125" height="60" as="geometry" />
        </mxCell>
        <mxCell id="TFyRHO4dZEJPEKeFEjWx-57" value="" style="endArrow=none;html=1;rounded=0;fontSize=12;startSize=8;endSize=8;curved=1;exitX=0.5;exitY=1;exitDx=0;exitDy=0;" parent="1" source="TFyRHO4dZEJPEKeFEjWx-46" target="TFyRHO4dZEJPEKeFEjWx-56" edge="1">
          <mxGeometry width="50" height="50" relative="1" as="geometry">
            <mxPoint x="875" y="190" as="sourcePoint" />
            <mxPoint x="880" y="240" as="targetPoint" />
          </mxGeometry>
        </mxCell>
        <mxCell id="TFyRHO4dZEJPEKeFEjWx-59" value="" style="endArrow=none;html=1;rounded=0;fontSize=12;startSize=8;endSize=8;curved=1;entryX=0.5;entryY=0;entryDx=0;entryDy=0;exitX=0.5;exitY=1;exitDx=0;exitDy=0;" parent="1" source="TFyRHO4dZEJPEKeFEjWx-56" target="TFyRHO4dZEJPEKeFEjWx-39" edge="1">
          <mxGeometry width="50" height="50" relative="1" as="geometry">
            <mxPoint x="885" y="200" as="sourcePoint" />
            <mxPoint x="885" y="220" as="targetPoint" />
          </mxGeometry>
        </mxCell>
        <mxCell id="TFyRHO4dZEJPEKeFEjWx-62" value="1" style="text;html=1;align=center;verticalAlign=middle;resizable=0;points=[];autosize=1;strokeColor=none;fillColor=none;fontSize=16;" parent="1" vertex="1">
          <mxGeometry x="875" y="180" width="30" height="30" as="geometry" />
        </mxCell>
        <mxCell id="TFyRHO4dZEJPEKeFEjWx-63" value="n" style="text;html=1;align=center;verticalAlign=middle;resizable=0;points=[];autosize=1;strokeColor=none;fillColor=none;fontSize=16;" parent="1" vertex="1">
          <mxGeometry x="875" y="270" width="30" height="30" as="geometry" />
        </mxCell>
        <mxCell id="TFyRHO4dZEJPEKeFEjWx-65" value="不同语境有不同的关系" style="text;html=1;align=center;verticalAlign=middle;resizable=0;points=[];autosize=1;strokeColor=none;fillColor=none;fontSize=16;" parent="1" vertex="1">
          <mxGeometry x="660" y="198" width="180" height="30" as="geometry" />
        </mxCell>
        <mxCell id="2tgW0Db9aaUr9wCwASK3-1" value="应用层" style="rounded=0;whiteSpace=wrap;html=1;fontSize=16;fillColor=#dae8fc;strokeColor=default;gradientColor=none;" parent="1" vertex="1">
          <mxGeometry x="-190" y="-380" width="100" height="30" as="geometry" />
        </mxCell>
        <mxCell id="2tgW0Db9aaUr9wCwASK3-2" value="表示层" style="rounded=0;whiteSpace=wrap;html=1;fontSize=16;fillColor=#dae8fc;strokeColor=default;" parent="1" vertex="1">
          <mxGeometry x="-190" y="-350" width="100" height="30" as="geometry" />
        </mxCell>
        <mxCell id="2tgW0Db9aaUr9wCwASK3-3" value="会话层" style="rounded=0;whiteSpace=wrap;html=1;fontSize=16;fillColor=#dae8fc;strokeColor=default;" parent="1" vertex="1">
          <mxGeometry x="-190" y="-320" width="100" height="30" as="geometry" />
        </mxCell>
        <mxCell id="2tgW0Db9aaUr9wCwASK3-4" value="传输层" style="rounded=0;whiteSpace=wrap;html=1;fontSize=16;fillColor=#f8cecc;strokeColor=#b85450;" parent="1" vertex="1">
          <mxGeometry x="-190" y="-290" width="100" height="30" as="geometry" />
        </mxCell>
        <mxCell id="2tgW0Db9aaUr9wCwASK3-5" value="网络层" style="rounded=0;whiteSpace=wrap;html=1;fontSize=16;fillColor=#d5e8d4;strokeColor=#82b366;" parent="1" vertex="1">
          <mxGeometry x="-190" y="-260" width="100" height="30" as="geometry" />
        </mxCell>
        <mxCell id="2tgW0Db9aaUr9wCwASK3-6" value="数据链路层" style="rounded=0;whiteSpace=wrap;html=1;fontSize=16;fillColor=#e1d5e7;strokeColor=#9673a6;" parent="1" vertex="1">
          <mxGeometry x="-190" y="-230" width="100" height="30" as="geometry" />
        </mxCell>
        <mxCell id="2tgW0Db9aaUr9wCwASK3-7" value="物理层" style="rounded=0;whiteSpace=wrap;html=1;fontSize=16;fillColor=#e1d5e7;strokeColor=#9673a6;" parent="1" vertex="1">
          <mxGeometry x="-190" y="-200" width="100" height="30" as="geometry" />
        </mxCell>
        <mxCell id="2tgW0Db9aaUr9wCwASK3-8" value="应用层" style="rounded=0;whiteSpace=wrap;html=1;fontSize=16;fillColor=#dae8fc;strokeColor=default;gradientColor=none;" parent="1" vertex="1">
          <mxGeometry x="10" y="-380" width="100" height="90" as="geometry" />
        </mxCell>
        <mxCell id="2tgW0Db9aaUr9wCwASK3-9" value="传输层" style="rounded=0;whiteSpace=wrap;html=1;fontSize=16;fillColor=#f8cecc;strokeColor=#b85450;" parent="1" vertex="1">
          <mxGeometry x="10" y="-290" width="100" height="30" as="geometry" />
        </mxCell>
        <mxCell id="2tgW0Db9aaUr9wCwASK3-10" value="网际层" style="rounded=0;whiteSpace=wrap;html=1;fontSize=16;fillColor=#d5e8d4;strokeColor=#82b366;" parent="1" vertex="1">
          <mxGeometry x="10" y="-260" width="100" height="30" as="geometry" />
        </mxCell>
        <mxCell id="2tgW0Db9aaUr9wCwASK3-11" value="网络接口层" style="rounded=0;whiteSpace=wrap;html=1;fontSize=16;fillColor=#e1d5e7;strokeColor=#9673a6;" parent="1" vertex="1">
          <mxGeometry x="10" y="-230" width="100" height="60" as="geometry" />
        </mxCell>
        <mxCell id="2tgW0Db9aaUr9wCwASK3-12" value="OSI参考模型" style="text;html=1;align=center;verticalAlign=middle;resizable=0;points=[];autosize=1;strokeColor=none;fillColor=none;fontSize=16;" parent="1" vertex="1">
          <mxGeometry x="-200" y="-150" width="120" height="30" as="geometry" />
        </mxCell>
        <mxCell id="2tgW0Db9aaUr9wCwASK3-13" value="TCP/IP参考模型" style="text;html=1;align=center;verticalAlign=middle;resizable=0;points=[];autosize=1;strokeColor=none;fillColor=none;fontSize=16;" parent="1" vertex="1">
          <mxGeometry x="-10" y="-150" width="140" height="30" as="geometry" />
        </mxCell>
        <mxCell id="2tgW0Db9aaUr9wCwASK3-15" value="" style="shape=flexArrow;endArrow=classic;html=1;rounded=0;fontSize=12;startSize=8;endSize=8;curved=1;fillColor=#fff2cc;strokeColor=#d6b656;" parent="1" edge="1">
          <mxGeometry width="50" height="50" relative="1" as="geometry">
            <mxPoint x="-70" y="-170" as="sourcePoint" />
            <mxPoint x="-70" y="-380" as="targetPoint" />
          </mxGeometry>
        </mxCell>
        <mxCell id="2tgW0Db9aaUr9wCwASK3-16" value="" style="shape=flexArrow;endArrow=classic;html=1;rounded=0;fontSize=12;startSize=8;endSize=8;curved=1;fillColor=#fff2cc;strokeColor=#d6b656;" parent="1" edge="1">
          <mxGeometry width="50" height="50" relative="1" as="geometry">
            <mxPoint x="131" y="-170" as="sourcePoint" />
            <mxPoint x="131" y="-380" as="targetPoint" />
          </mxGeometry>
        </mxCell>
        <mxCell id="HK-XFA4djFXHHmsGSNY0-1" value="0" style="rounded=0;whiteSpace=wrap;html=1;fontSize=16;fillColor=#dae8fc;strokeColor=#6c8ebf;" vertex="1" parent="1">
          <mxGeometry x="-1047" y="-137" width="25" height="36" as="geometry" />
        </mxCell>
        <mxCell id="HK-XFA4djFXHHmsGSNY0-2" value="XXXXXXX" style="rounded=0;whiteSpace=wrap;html=1;fontSize=16;fillColor=#dae8fc;strokeColor=#6c8ebf;" vertex="1" parent="1">
          <mxGeometry x="-1022" y="-137" width="83" height="36" as="geometry" />
        </mxCell>
        <mxCell id="HK-XFA4djFXHHmsGSNY0-3" value="XXXXXXXXXXXXXXXXXXXXXXXX" style="rounded=0;whiteSpace=wrap;html=1;fontSize=16;fillColor=#fff2cc;strokeColor=#d6b656;" vertex="1" parent="1">
          <mxGeometry x="-939" y="-137" width="266" height="36" as="geometry" />
        </mxCell>
        <mxCell id="HK-XFA4djFXHHmsGSNY0-4" value="前八位是网络号&lt;br&gt;第一位为0&lt;br&gt;表示的十进制范围是1-126" style="text;html=1;align=center;verticalAlign=middle;resizable=0;points=[];autosize=1;strokeColor=none;fillColor=none;fontSize=16;" vertex="1" parent="1">
          <mxGeometry x="-1104" y="-90" width="203" height="70" as="geometry" />
        </mxCell>
        <mxCell id="HK-XFA4djFXHHmsGSNY0-5" value="A类" style="text;html=1;align=center;verticalAlign=middle;resizable=0;points=[];autosize=1;strokeColor=none;fillColor=none;fontSize=16;" vertex="1" parent="1">
          <mxGeometry x="-911" y="-14" width="45" height="31" as="geometry" />
        </mxCell>
        <mxCell id="HK-XFA4djFXHHmsGSNY0-6" value="2^24-2=16777214&lt;br&gt;它可以让容纳这些主机" style="text;html=1;align=center;verticalAlign=middle;resizable=0;points=[];autosize=1;strokeColor=none;fillColor=none;fontSize=16;" vertex="1" parent="1">
          <mxGeometry x="-876" y="-80" width="178" height="50" as="geometry" />
        </mxCell>
        <mxCell id="HK-XFA4djFXHHmsGSNY0-7" value="10" style="rounded=0;whiteSpace=wrap;html=1;fontSize=16;fillColor=#dae8fc;strokeColor=#6c8ebf;" vertex="1" parent="1">
          <mxGeometry x="-1047" y="44" width="23" height="30" as="geometry" />
        </mxCell>
        <mxCell id="HK-XFA4djFXHHmsGSNY0-8" value="XXXXXXXXXXXXXX" style="rounded=0;whiteSpace=wrap;html=1;fontSize=16;fillColor=#dae8fc;strokeColor=#6c8ebf;" vertex="1" parent="1">
          <mxGeometry x="-1024" y="44" width="154" height="30" as="geometry" />
        </mxCell>
        <mxCell id="HK-XFA4djFXHHmsGSNY0-9" value="网络号16位" style="text;html=1;align=center;verticalAlign=middle;resizable=0;points=[];autosize=1;strokeColor=none;fillColor=none;fontSize=16;" vertex="1" parent="1">
          <mxGeometry x="-1011" y="95" width="100" height="31" as="geometry" />
        </mxCell>
        <mxCell id="HK-XFA4djFXHHmsGSNY0-10" value="XXXXXXXXXXXXXXXX" style="rounded=0;whiteSpace=wrap;html=1;fontSize=16;fillColor=#d5e8d4;strokeColor=#82b366;" vertex="1" parent="1">
          <mxGeometry x="-870" y="44" width="176" height="30" as="geometry" />
        </mxCell>
        <mxCell id="HK-XFA4djFXHHmsGSNY0-11" value="主机号16位&lt;br&gt;2^26-2=65534" style="text;html=1;align=center;verticalAlign=middle;resizable=0;points=[];autosize=1;strokeColor=none;fillColor=none;fontSize=16;" vertex="1" parent="1">
          <mxGeometry x="-854" y="87" width="120" height="50" as="geometry" />
        </mxCell>
        <mxCell id="HK-XFA4djFXHHmsGSNY0-13" value="B类" style="text;html=1;align=center;verticalAlign=middle;resizable=0;points=[];autosize=1;strokeColor=none;fillColor=none;fontSize=16;" vertex="1" parent="1">
          <mxGeometry x="-919" y="139" width="45" height="31" as="geometry" />
        </mxCell>
        <mxCell id="HK-XFA4djFXHHmsGSNY0-15" value="110" style="whiteSpace=wrap;html=1;fontSize=16;fillColor=#dae8fc;strokeColor=#6c8ebf;" vertex="1" parent="1">
          <mxGeometry x="-1051" y="225" width="30" height="32" as="geometry" />
        </mxCell>
        <mxCell id="HK-XFA4djFXHHmsGSNY0-16" value="XXXXXXXXXXXXXXXXXXXXX" style="whiteSpace=wrap;html=1;fontSize=16;fillColor=#dae8fc;strokeColor=#6c8ebf;" vertex="1" parent="1">
          <mxGeometry x="-1022.5" y="225" width="231" height="32" as="geometry" />
        </mxCell>
        <mxCell id="HK-XFA4djFXHHmsGSNY0-17" value="XXXXXXXX" style="whiteSpace=wrap;html=1;fontSize=16;fillColor=#d5e8d4;strokeColor=#82b366;" vertex="1" parent="1">
          <mxGeometry x="-791.5" y="225" width="89.5" height="32" as="geometry" />
        </mxCell>
        <mxCell id="HK-XFA4djFXHHmsGSNY0-18" value="网络号24位" style="text;html=1;align=center;verticalAlign=middle;resizable=0;points=[];autosize=1;strokeColor=none;fillColor=none;fontSize=16;" vertex="1" parent="1">
          <mxGeometry x="-994" y="269" width="100" height="31" as="geometry" />
        </mxCell>
        <mxCell id="HK-XFA4djFXHHmsGSNY0-19" value="主机号8位&lt;br&gt;2^8-2个主机" style="text;html=1;align=center;verticalAlign=middle;resizable=0;points=[];autosize=1;strokeColor=none;fillColor=none;fontSize=16;" vertex="1" parent="1">
          <mxGeometry x="-800" y="263" width="106" height="50" as="geometry" />
        </mxCell>
        <mxCell id="HK-XFA4djFXHHmsGSNY0-21" value="C类" style="text;html=1;align=center;verticalAlign=middle;resizable=0;points=[];autosize=1;strokeColor=none;fillColor=none;fontSize=16;" vertex="1" parent="1">
          <mxGeometry x="-896" y="321" width="46" height="31" as="geometry" />
        </mxCell>
        <mxCell id="HK-XFA4djFXHHmsGSNY0-22" value="IP地址1" style="text;html=1;align=center;verticalAlign=middle;resizable=0;points=[];autosize=1;strokeColor=none;fillColor=none;fontSize=16;" vertex="1" parent="1">
          <mxGeometry x="478" y="-391" width="74" height="31" as="geometry" />
        </mxCell>
        <mxCell id="HK-XFA4djFXHHmsGSNY0-23" value="AND运算" style="text;html=1;align=center;verticalAlign=middle;resizable=0;points=[];autosize=1;strokeColor=none;fillColor=none;fontSize=16;" vertex="1" parent="1">
          <mxGeometry x="391" y="-368" width="84" height="31" as="geometry" />
        </mxCell>
        <mxCell id="HK-XFA4djFXHHmsGSNY0-24" value="子网掩码" style="text;html=1;align=center;verticalAlign=middle;resizable=0;points=[];autosize=1;strokeColor=none;fillColor=none;fontSize=16;" vertex="1" parent="1">
          <mxGeometry x="469" y="-351" width="82" height="31" as="geometry" />
        </mxCell>
        <mxCell id="HK-XFA4djFXHHmsGSNY0-25" value="" style="endArrow=none;html=1;rounded=0;fontSize=12;startSize=8;endSize=8;curved=1;" edge="1" parent="1">
          <mxGeometry width="50" height="50" relative="1" as="geometry">
            <mxPoint x="384" y="-306" as="sourcePoint" />
            <mxPoint x="552" y="-306" as="targetPoint" />
          </mxGeometry>
        </mxCell>
        <mxCell id="HK-XFA4djFXHHmsGSNY0-26" value="网络号1" style="text;html=1;align=center;verticalAlign=middle;resizable=0;points=[];autosize=1;strokeColor=none;fillColor=none;fontSize=16;" vertex="1" parent="1">
          <mxGeometry x="473" y="-295" width="75" height="31" as="geometry" />
        </mxCell>
        <mxCell id="HK-XFA4djFXHHmsGSNY0-27" value="IP地址2" style="text;html=1;align=center;verticalAlign=middle;resizable=0;points=[];autosize=1;strokeColor=none;fillColor=none;fontSize=16;" vertex="1" parent="1">
          <mxGeometry x="675" y="-391" width="74" height="31" as="geometry" />
        </mxCell>
        <mxCell id="HK-XFA4djFXHHmsGSNY0-28" value="AND运算" style="text;html=1;align=center;verticalAlign=middle;resizable=0;points=[];autosize=1;strokeColor=none;fillColor=none;fontSize=16;" vertex="1" parent="1">
          <mxGeometry x="588" y="-368" width="84" height="31" as="geometry" />
        </mxCell>
        <mxCell id="HK-XFA4djFXHHmsGSNY0-29" value="子网掩码" style="text;html=1;align=center;verticalAlign=middle;resizable=0;points=[];autosize=1;strokeColor=none;fillColor=none;fontSize=16;" vertex="1" parent="1">
          <mxGeometry x="666" y="-351" width="82" height="31" as="geometry" />
        </mxCell>
        <mxCell id="HK-XFA4djFXHHmsGSNY0-30" value="" style="endArrow=none;html=1;rounded=0;fontSize=12;startSize=8;endSize=8;curved=1;" edge="1" parent="1">
          <mxGeometry width="50" height="50" relative="1" as="geometry">
            <mxPoint x="581" y="-306" as="sourcePoint" />
            <mxPoint x="749" y="-306" as="targetPoint" />
          </mxGeometry>
        </mxCell>
        <mxCell id="HK-XFA4djFXHHmsGSNY0-31" value="网络号2" style="text;html=1;align=center;verticalAlign=middle;resizable=0;points=[];autosize=1;strokeColor=none;fillColor=none;fontSize=16;" vertex="1" parent="1">
          <mxGeometry x="670" y="-295" width="75" height="31" as="geometry" />
        </mxCell>
        <mxCell id="HK-XFA4djFXHHmsGSNY0-32" value="网络号1=网络号2则为&lt;font color=&quot;#ff3333&quot;&gt;同一个子网&lt;/font&gt;" style="text;html=1;align=center;verticalAlign=middle;resizable=0;points=[];autosize=1;strokeColor=#82b366;fillColor=#d5e8d4;fontSize=16;" vertex="1" parent="1">
          <mxGeometry x="444" y="-248" width="253" height="31" as="geometry" />
        </mxCell>
      </root>
    </mxGraphModel>
  </diagram>
</mxfile>
